<?xml version="1.0" encoding="UTF-8"?>
<svg width="256" height="256" viewBox="0 0 256 256" fill="none" xmlns="http://www.w3.org/2000/svg">
  <defs>
    <linearGradient id="bg" x1="128" y1="0" x2="128" y2="256" gradientUnits="userSpaceOnUse">
      <stop stop-color="#0f172a"/>
      <stop offset="1" stop-color="#111827"/>
    </linearGradient>
    <filter id="glow" x="-50%" y="-50%" width="200%" height="200%">
      <feGaussianBlur stdDeviation="6" result="blur"/>
      <feMerge>
        <feMergeNode in="blur"/>
        <feMergeNode in="SourceGraphic"/>
      </feMerge>
    </filter>
  </defs>
  <rect width="256" height="256" rx="28" fill="url(#bg)"/>
  <!-- Keyboard frame -->
  <rect x="36" y="68" width="184" height="84" rx="18" fill="#0b1220" stroke="#1f2937" stroke-width="4"/>
  <!-- Keys row -->
  <g fill="#0f1a2c" stroke="#334155" stroke-width="3">
    <rect x="56" y="86" width="18" height="18" rx="3"/>
    <rect x="78" y="86" width="18" height="18" rx="3"/>
    <rect x="100" y="86" width="18" height="18" rx="3"/>
    <rect x="122" y="86" width="18" height="18" rx="3"/>
    <rect x="144" y="86" width="18" height="18" rx="3"/>
    <rect x="166" y="86" width="18" height="18" rx="3"/>
    <rect x="188" y="86" width="18" height="18" rx="3"/>
  </g>
  <!-- Space key -->
  <rect x="84" y="114" width="88" height="16" rx="4" fill="#0f1a2c" stroke="#334155" stroke-width="3"/>
  <!-- Cable + particles -->
  <path d="M128 44c0 18 10 20 10 32" stroke="#1f6bff" stroke-width="6" stroke-linecap="round"/>
  <g fill="#1f6bff">
    <circle cx="98" cy="58" r="3"/>
    <circle cx="158" cy="58" r="3"/>
    <circle cx="138" cy="48" r="3"/>
  </g>
  <!-- Hands -->
  <g filter="url(#glow)">
    <path d="M86 170c-6 0-10-5-10-11v-19c0-7 6-12 13-12h5c7 0 13 5 13 12v5h42v-5c0-7 6-12 13-12h5c7 0 13 5 13 12v19c0 6-4 11-10 11h-15c-8 0-14-6-14-14v-4h-26v4c0 8-6 14-14 14H86z" fill="#0b2545" stroke="#0ea5e9" stroke-opacity=".25"/>
  </g>
</svg>

